# xmcd
# 
# Track frame offsets:
#     150
#     3100
#     58210
#     113386
#     116976
#     166786
#     207533
# 
# Disc length: 2827
# 
# Revision: 0
# Processed by: cddbd v1.5.2PL0 Copyright (c) Steve Scherf et al.
# Submitted via: BonkEnc v1.0.8
# 
DISCID=560b0907
DTITLE=Elsa Sophia von Kamphoevener (Erzählerin) - Orientalische Märchen
DYEAR=2004
DGENRE=Hörbuch
TTITLE0=Musik
TTITLE1=Der Gemahl der Nacht (Teil1)
TTITLE2=Der Gemahl der Nacht (Teil2)
TTITLE3=Musik
TTITLE4=Das Gebet des Kadi (Teil1)
TTITLE5=Das Gebet des Kadi (Teil2)
TTITLE6=Musik
EXTD=
EXTT0=
EXTT1=
EXTT2=
EXTT3=
EXTT4=
EXTT5=
EXTT6=
PLAYORDER=
